<svg xmlns="http://www.w3.org/2000/svg" viewBox="0 0 40 40">
  <defs>
    <linearGradient id="g" x1="4" y1="4" x2="36" y2="36" gradientUnits="userSpaceOnUse">
      <stop stop-color="#00D4FF"/>
      <stop offset="1" stop-color="#0099FF"/>
    </linearGradient>
  </defs>
  <rect width="40" height="40" rx="11" fill="#0B1220"/>
  <g stroke="url(#g)" stroke-width="1.4" stroke-linecap="round">
    <path d="M4 12h4M4 12v-3"/>
    <path d="M4 20h4"/>
    <path d="M4 28h4M4 28v3"/>
  </g>
  <circle cx="4" cy="9" r="1.4" fill="#00D4FF"/>
  <circle cx="4" cy="20" r="1.4" fill="#00D4FF"/>
  <circle cx="4" cy="31" r="1.4" fill="#00D4FF"/>
  <path d="M20 8c-7.2 0-13 5.2-13 11.6 0 3.6 1.9 6.8 4.9 8.9-.2 1.5-.9 3.4-2.3 4.8 2.6 0 5-1 6.8-2.3 1.1.3 2.3.5 3.6.5 7.2 0 13-5.2 13-11.9S27.2 8 20 8Z" fill="none" stroke="url(#g)" stroke-width="2.2"/>
  <text x="20" y="24" text-anchor="middle" font-family="IBM Plex Mono, monospace" font-weight="700" font-size="11" fill="#E6EAF2">AI</text>
</svg>
