<svg xmlns="http://www.w3.org/2000/svg" width="1200" height="630" viewBox="0 0 1200 630">
  <defs>
    <linearGradient id="logoGrad" x1="0" y1="0" x2="1" y2="1">
      <stop stop-color="#00D4FF"/>
      <stop offset="1" stop-color="#0099FF"/>
    </linearGradient>
    <radialGradient id="g1" cx="15%" cy="0%" r="60%">
      <stop offset="0%" stop-color="#00D4FF" stop-opacity="0.10"/>
      <stop offset="100%" stop-color="#00D4FF" stop-opacity="0"/>
    </radialGradient>
    <radialGradient id="g2" cx="90%" cy="10%" r="60%">
      <stop offset="0%" stop-color="#0099FF" stop-opacity="0.14"/>
      <stop offset="100%" stop-color="#0099FF" stop-opacity="0"/>
    </radialGradient>
  </defs>
  <rect width="1200" height="630" fill="#0B1220"/>
  <rect width="1200" height="630" fill="url(#g1)"/>
  <rect width="1200" height="630" fill="url(#g2)"/>

  <g transform="translate(90,90)">
    <rect width="76" height="76" rx="21" fill="#0F1621" stroke="#1C2733" stroke-width="2"/>
    <g stroke="url(#logoGrad)" stroke-width="1.6" stroke-linecap="round">
      <path d="M8 24h6M8 24v-5"/>
      <path d="M8 38h6"/>
      <path d="M8 52h6M8 52v5"/>
    </g>
    <circle cx="8" cy="17" r="1.8" fill="#00D4FF"/>
    <circle cx="8" cy="38" r="1.8" fill="#00D4FF"/>
    <circle cx="8" cy="59" r="1.8" fill="#00D4FF"/>
    <path d="M38 14c-13.6 0-24.7 9.9-24.7 22 0 6.8 3.6 12.9 9.3 16.9-.4 2.9-1.7 6.5-4.4 9.1 4.9 0 9.5-1.9 12.9-4.4 2.1.6 4.4 1 6.9 1 13.6 0 24.7-9.9 24.7-22.6S51.6 14 38 14Z" fill="none" stroke="url(#logoGrad)" stroke-width="3"/>
    <text x="38" y="45" text-anchor="middle" font-family="IBM Plex Mono, monospace" font-weight="700" font-size="21" fill="#E6EAF2">AI</text>
  </g>

  <text x="196" y="130" font-family="IBM Plex Mono, monospace" font-size="34" font-weight="700">
    <tspan fill="#E6EAF2">Smart</tspan><tspan fill="#00D4FF">AI</tspan><tspan fill="#8B98A1" font-size="18" dx="10">VN</tspan>
  </text>

  <text x="90" y="245" font-family="IBM Plex Mono, monospace" font-size="46" font-weight="700" fill="#E6EAF2">AI Automation</text>
  <text x="90" y="295" font-family="IBM Plex Mono, monospace" font-size="46" font-weight="700" fill="#00D4FF">for Local Business</text>

  <text x="90" y="360" font-family="Manrope, sans-serif" font-size="26" fill="#8B98A1">Restaurants · Hotels · Dental Clinics · Spas · Salons</text>

  <g font-family="IBM Plex Mono, monospace" font-size="18" fill="#8B98A1">
    <text x="90" y="440"><tspan fill="#22C55E">✓</tspan> Instant replies 24/7</text>
    <text x="90" y="470"><tspan fill="#22C55E">✓</tspan> Telegram · Zalo · Facebook</text>
    <text x="450" y="440"><tspan fill="#22C55E">✓</tspan> Vietnamese · English · Russian</text>
    <text x="450" y="470"><tspan fill="#22C55E">✓</tspan> Custom-built, any language</text>
  </g>

  <rect x="90" y="530" width="1020" height="1" fill="#1C2733"/>
  <text x="90" y="570" font-family="IBM Plex Mono, monospace" font-size="18" fill="#8B98A1">getsmartaivn@gmail.com   ·   Nha Trang, Vietnam</text>
</svg>
