<svg xmlns="http://www.w3.org/2000/svg" width="1200" height="630" viewBox="0 0 1200 630">
  <defs>
    <radialGradient id="g1" cx="15%" cy="0%" r="60%">
      <stop offset="0%" stop-color="#FFB020" stop-opacity="0.12"/>
      <stop offset="100%" stop-color="#FFB020" stop-opacity="0"/>
    </radialGradient>
    <radialGradient id="g2" cx="90%" cy="10%" r="60%">
      <stop offset="0%" stop-color="#0068FF" stop-opacity="0.16"/>
      <stop offset="100%" stop-color="#0068FF" stop-opacity="0"/>
    </radialGradient>
  </defs>
  <rect width="1200" height="630" fill="#0F1417"/>
  <rect width="1200" height="630" fill="url(#g1)"/>
  <rect width="1200" height="630" fill="url(#g2)"/>

  <g transform="translate(90,90)">
    <rect width="72" height="72" rx="20" fill="#151B1F" stroke="#2A343B" stroke-width="2"/>
    <path d="M36 16c-9.9 0-18 7.2-18 16.2 0 5 2.5 9.5 6.5 12.4-.2 2-1.1 4.7-3.1 6.8 3.6 0 7-1.4 9.5-3.2 1.6.5 3.3.7 5.1.7 9.9 0 18-7.2 18-16.7S45.9 16 36 16Z" fill="#FFB020"/>
    <circle cx="28" cy="32.5" r="3" fill="#0B0F12"/>
    <circle cx="44" cy="32.5" r="3" fill="#0B0F12"/>
  </g>

  <text x="90" y="240" font-family="IBM Plex Mono, monospace" font-size="56" font-weight="700" fill="#EDEFF1">SmartAI VN</text>
  <text x="90" y="285" font-family="IBM Plex Mono, monospace" font-size="22" letter-spacing="2" fill="#FFB020">AI AUTOMATION FOR RESTAURANTS</text>

  <text x="90" y="360" font-family="Manrope, sans-serif" font-size="30" fill="#8B98A1">Your customers message you.</text>
  <text x="90" y="400" font-family="Manrope, sans-serif" font-size="30" fill="#8B98A1">Someone should answer in seconds.</text>

  <g font-family="IBM Plex Mono, monospace" font-size="18" fill="#8B98A1">
    <text x="90" y="470">✓ Instant replies 24/7</text>
    <text x="90" y="500">✓ Telegram · Zalo · Facebook</text>
    <text x="420" y="470">✓ Vietnamese · English · Russian</text>
    <text x="420" y="500">✓ Custom-trained for your business</text>
  </g>

  <rect x="90" y="540" width="1020" height="1" fill="#2A343B"/>
  <text x="90" y="580" font-family="IBM Plex Mono, monospace" font-size="18" fill="#8B98A1">smartaivn@gmail.com   ·   Nha Trang, Vietnam</text>
</svg>
